<?xml version="1.0" standalone="no"?>
<svg xmlns="http://www.w3.org/2000/svg" viewBox="0 0 100.979 116.6" width="100.979" height="116.6"><polygon fill="none" stroke="#edd34d" stroke-width="3" points="99.479,29.9 99.479,86.69999999999999 50.4895,115.1 1.5,86.69999999999999 1.5,29.9 50.4895,1.5"></polygon><path fill="#000000" fill-rule="nonzero" d="M1.32 5.94L0 5.94L0 0L16.66 0L16.66 5.94L15.34 5.94L14.08 1.88L10.05 1.65L10.05 17.70L12.63 18.31L12.63 19.60L4.03 19.60L4.03 18.31L6.61 17.70L6.61 1.65L2.55 1.88L1.32 5.94ZM33.85 19.60L18.73 19.60L18.73 18.31L21.31 17.70L21.31 1.90L18.73 1.29L18.73 0L33.32 0L33.32 5.74L32.00 5.74L30.80 1.88L24.75 1.65L24.75 8.85L30.80 8.32L30.80 10.81L24.75 10.30L24.75 17.95L31.33 17.72L32.76 13.55L34.08 13.55L33.85 19.60ZM45.28 19.60L36.68 19.60L36.68 18.31L39.28 17.70L39.28 1.90L36.68 1.29L36.68 0L45.28 0L45.28 1.29L42.70 1.90L42.70 17.70L45.28 18.31L45.28 19.60Z" transform="translate(27.852, 22.5)"></path><g fill="#000000" color="#000000" transform="translate(28.4895 50.1) scale(0.44)"><svg width="100.0" height="100.0" x="0.0" y="0.0" viewBox="0 0 100 100"><g><path d="M50,0.8C22.8,0.8,0.8,22.8,0.8,50s22,49.2,49.2,49.2s49.2-22,49.2-49.2S77.2,0.8,50,0.8z M50,96.8   c-25.8,0-46.8-21-46.8-46.8S24.2,3.2,50,3.2s46.8,21,46.8,46.8S75.8,96.8,50,96.8z"></path><path d="M50,5.8C25.6,5.8,5.8,25.6,5.8,50S25.6,94.2,50,94.2S94.2,74.4,94.2,50S74.4,5.8,50,5.8z M87.2,31.1h-19   c-4.1-3.9-9.4-6.5-15.3-7.2l12.7-12.7C74.9,15,82.6,22.1,87.2,31.1z M33.6,11.6c5-2.2,10.6-3.4,16.4-3.4c4.5,0,8.9,0.7,12.9,2.1   L49.5,23.8c-6,0.1-11.5,2.3-15.9,5.8V11.6z M31.1,12.8v19c-3.9,4.1-6.5,9.4-7.2,15.3L11.3,34.5C15,25.1,22.1,17.4,31.1,12.8z    M8.2,50c0-4.5,0.7-8.9,2.1-12.9l13.5,13.5c0.1,6,2.3,11.5,5.8,15.9h-18C9.5,61.4,8.2,55.8,8.2,50z M12.8,68.9h19   c4.1,3.9,9.4,6.5,15.3,7.2L34.5,88.7C25.1,85,17.4,77.9,12.8,68.9z M66.4,88.4c-5,2.2-10.6,3.4-16.4,3.4c-4.5,0-8.9-0.7-12.9-2.1   l13.5-13.5c6-0.1,11.5-2.3,15.9-5.8L66.4,88.4L66.4,88.4z M50,73.8c-13.1,0-23.8-10.7-23.8-23.8S36.9,26.2,50,26.2   S73.8,36.9,73.8,50S63.1,73.8,50,73.8z M68.9,87.2v-19c3.9-4.1,6.5-9.4,7.2-15.3l12.7,12.7C85,74.9,77.9,82.6,68.9,87.2z    M76.2,49.5c-0.1-6-2.3-11.5-5.8-15.9h17.9c2.2,5,3.4,10.6,3.4,16.4c0,4.5-0.7,8.9-2.1,12.9L76.2,49.5z"></path></g></svg></g></svg>